<svg viewBox="0 0 104 104" fill="none" xmlns="http://www.w3.org/2000/svg">
<path fill-rule="evenodd" clip-rule="evenodd" d="M82.3341 47.6664C84.9669 47.6665 87.5376 48.4659 89.7061 49.9589C91.8745 51.452 93.5386 53.5682 94.478 56.0277C95.4175 58.4871 95.588 61.1738 94.9671 63.7323C94.3462 66.2908 92.9631 68.6005 91.0008 70.3557V91.8274C91.0008 92.1969 90.9063 92.5602 90.7263 92.8829C90.5463 93.2056 90.2868 93.4768 89.9724 93.6709C89.658 93.865 89.2992 93.9755 88.9301 93.9919C88.561 94.0082 88.1938 93.9299 87.8635 93.7644L82.3341 90.9997L76.8048 93.7644C76.4745 93.9299 76.1073 94.0082 75.7382 93.9919C75.3691 93.9755 75.0103 93.865 74.6959 93.6709C74.3815 93.4768 74.122 93.2056 73.942 92.8829C73.762 92.5602 73.6675 92.1969 73.6675 91.8274V70.3557C71.7052 68.6005 70.3221 66.2908 69.7012 63.7323C69.0803 61.1738 69.2508 58.4871 70.1903 56.0277C71.1297 53.5682 72.7937 51.452 74.9622 49.9589C77.1307 48.4659 79.7014 47.6665 82.3341 47.6664ZM86.6675 17.3331C88.966 17.3331 91.1704 18.2462 92.7957 19.8715C94.421 21.4968 95.3341 23.7012 95.3341 25.9997V43.3331C91.1617 40.2038 86.0006 38.6845 80.7982 39.0542C75.5958 39.424 70.7014 41.6578 67.0135 45.3458C63.3256 49.0337 61.0917 53.9281 60.722 59.1305C60.3523 64.3328 61.8715 69.494 65.0008 73.6664V86.6664H17.3341C15.0356 86.6664 12.8312 85.7533 11.2059 84.128C9.58057 82.5027 8.66748 80.2983 8.66748 77.9997V25.9997C8.66748 23.7012 9.58057 21.4968 11.2059 19.8715C12.8312 18.2462 15.0356 17.3331 17.3341 17.3331H86.6675ZM34.6675 56.3331H26.0008C24.8515 56.3331 23.7493 56.7896 22.9367 57.6023C22.124 58.4149 21.6675 59.5171 21.6675 60.6664C21.6675 61.8157 22.124 62.9179 22.9367 63.7305C23.7493 64.5432 24.8515 64.9997 26.0008 64.9997H34.6675C35.8167 64.9997 36.9189 64.5432 37.7316 63.7305C38.5443 62.9179 39.0008 61.8157 39.0008 60.6664C39.0008 59.5171 38.5443 58.4149 37.7316 57.6023C36.9189 56.7896 35.8167 56.3331 34.6675 56.3331ZM52.0008 38.9997H26.0008C24.8963 39.001 23.834 39.4239 23.0309 40.1821C22.2278 40.9403 21.7445 41.9765 21.6797 43.0791C21.615 44.1817 21.9737 45.2674 22.6826 46.1143C23.3915 46.9613 24.3971 47.5056 25.4938 47.6361L26.0008 47.6664H52.0008C53.1053 47.6652 54.1676 47.2423 54.9707 46.4841C55.7739 45.7259 56.2572 44.6896 56.3219 43.587C56.3866 42.4844 56.0279 41.3988 55.319 40.5518C54.6101 39.7048 53.6046 39.1605 52.5078 39.0301L52.0008 38.9997Z" fill="#C8DEFF"/>
</svg>
