<svg viewBox="0 0 16 19" fill="none" xmlns="http://www.w3.org/2000/svg">
  <path d="M8.00023 18.25H8C5.97841 18.25 4.281 17.5552 2.86447 16.1539C1.44754 14.7521 0.749395 13.0815 0.75 11.1003V11.1C0.75 10.0972 0.939336 9.18572 1.30985 8.35576C1.68811 7.50846 2.20945 6.75185 2.87769 6.083L7.82489 1.23574L7.82492 1.23577L7.83033 1.23035C7.87055 1.19013 7.90095 1.17274 7.92044 1.16438C7.93907 1.1564 7.96302 1.15002 8 1.15002C8.03698 1.15002 8.06093 1.1564 8.07956 1.16438C8.09905 1.17274 8.12945 1.19013 8.16967 1.23036L8.16964 1.23038L8.17511 1.23574L13.1223 6.083C13.7906 6.75185 14.3119 7.50846 14.6901 8.35576C15.0607 9.18572 15.25 10.0972 15.25 11.1C15.25 13.0822 14.5517 14.7532 13.1354 16.155C11.7197 17.5561 10.0225 18.2506 8.00023 18.25Z" fill="white" stroke="#12181C" stroke-width="1.5"/>
</svg>
