<svg  viewBox="0 0 24 24" fill="none" xmlns="http://www.w3.org/2000/svg">
  <path d="M6.25 19C5.9 19 5.604 18.879 5.362 18.637C5.12 18.395 4.99934 18.0993 5 17.75C5 17.4 5.121 17.104 5.363 16.862C5.605 16.62 5.90067 16.4993 6.25 16.5H9L12 7.5H9.25C8.9 7.5 8.604 7.379 8.362 7.137C8.12 6.895 7.99934 6.59934 8 6.25C8 5.9 8.121 5.604 8.363 5.362C8.605 5.12 8.90067 4.99934 9.25 5H16.75C17.1 5 17.396 5.121 17.638 5.363C17.88 5.605 18.0007 5.90067 18 6.25C18 6.6 17.879 6.896 17.637 7.138C17.395 7.38 17.0993 7.50067 16.75 7.5H14.5L11.5 16.5H13.75C14.1 16.5 14.396 16.621 14.638 16.863C14.88 17.105 15.0007 17.4007 15 17.75C15 18.1 14.879 18.396 14.637 18.638C14.395 18.88 14.0993 19.0007 13.75 19H6.25Z" fill="#212223"/>
</svg>
