<svg viewBox="0 0 20 20" fill="none" xmlns="http://www.w3.org/2000/svg">
<path d="M19.4269 0.677979L10.8936 6.99203L12.4804 3.27098L19.4269 0.677979Z" fill="#E17726"/>
<path d="M0.481645 0.685425L7.40955 3.27143L8.9163 7.04126L0.481645 0.685425ZM15.9927 14.1062L19.7643 14.178L18.4461 18.6558L13.8439 17.3887L15.9927 14.1062ZM3.89569 14.1062L6.03641 17.3887L1.44197 18.6559L0.131836 14.178L3.89569 14.1062Z" fill="#E27625"/>
<path d="M8.71096 6.081L8.86508 11.0592L4.25293 10.8494L5.56485 8.87015L5.58147 8.85112L8.71096 6.081ZM11.1287 6.02545L14.306 8.85127L14.3224 8.87023L15.6344 10.8494L11.0232 11.0592L11.1287 6.02545ZM6.17102 14.1206L8.68936 16.0828L5.76395 17.4952L6.17102 14.1206ZM13.7169 14.1203L14.1155 17.4953L11.1982 16.0827L13.7169 14.1203Z" fill="#E27625"/>
<path d="M11.2634 15.8979L14.2237 17.3313L11.4701 18.64L11.4986 17.775L11.2634 15.8979ZM8.62474 15.8985L8.39876 17.7609L8.41733 18.639L5.65723 17.3313L8.62474 15.8985Z" fill="#D5BFB2"/>
<path d="M7.76931 11.709L8.54289 13.3347L5.90918 12.5632L7.76931 11.709ZM12.1184 11.7091L13.9873 12.5632L11.345 13.3345L12.1184 11.7091Z" fill="#233447"/>
<path d="M6.37255 14.104L5.94684 17.6029L3.66504 14.1806L6.37255 14.104ZM13.5156 14.1041L16.2231 14.1806L13.9328 17.6031L13.5156 14.1041ZM15.7013 10.6516L13.7308 12.6598L12.2116 11.9655L11.4842 13.4946L11.0074 10.8651L15.7013 10.6516ZM4.18567 10.6516L8.88048 10.8651L8.40358 13.4946L7.67608 11.9657L6.1649 12.6598L4.18567 10.6516Z" fill="#CC6228"/>
<path d="M4.05273 10.2394L6.2821 12.5016L6.35932 14.7349L4.05273 10.2394ZM15.8371 10.2354L13.5263 14.7389L13.6133 12.5016L15.8371 10.2354ZM8.77131 10.3772L8.86104 10.942L9.08275 12.3489L8.9402 16.67L8.26629 13.1987L8.26606 13.1629L8.77131 10.3772ZM11.1151 10.3694L11.6217 13.1629L11.6214 13.1987L10.9458 16.6787L10.9191 15.8083L10.8137 12.3233L11.1151 10.3694Z" fill="#E27525"/>
<path d="M13.8122 12.4117L13.7368 14.3521L11.385 16.1844L10.9096 15.8485L11.4425 13.1036L13.8122 12.4117ZM6.08496 12.4117L8.44647 13.1036L8.97937 15.8485L8.50395 16.1844L6.15208 14.352L6.08496 12.4117Z" fill="#F5841F"/>
<path d="M5.20703 16.9028L8.21587 18.3285L8.20313 17.7197L8.45491 17.4987H11.4328L11.6937 17.7189L11.6744 18.3272L14.6642 16.9064L13.2094 18.1086L11.4502 19.3169H8.43075L6.67277 18.1037L5.20703 16.9028Z" fill="#C0AC9D"/>
<path d="M11.0474 15.7081L11.4728 16.0087L11.7221 17.9977L11.3613 17.6931H8.52775L8.17383 18.0038L8.41496 16.0088L8.84051 15.7081H11.0474Z" fill="#161616"/>
<path d="M18.8636 0.852783L19.888 3.92571L19.2483 7.03283L19.7038 7.38419L19.0874 7.85448L19.5507 8.2123L18.9372 8.77092L19.3138 9.04367L18.3143 10.2109L14.215 9.01733L14.1795 8.9983L11.2254 6.50636L18.8636 0.852783ZM1.02531 0.852783L8.66363 6.50636L5.70948 8.9983L5.67398 9.01733L1.57461 10.2109L0.575136 9.04367L0.951436 8.77115L0.338356 8.2123L0.800729 7.85487L0.175066 7.38326L0.64777 7.03166L0.000976562 3.92587L1.02531 0.852783Z" fill="#763E1A"/>
<path d="M14.0138 8.7563L18.3573 10.0209L19.7684 14.3701H16.0455L13.4804 14.4024L15.3459 10.7662L14.0138 8.7563ZM5.87375 8.7563L4.5414 10.7662L6.40713 14.4024L3.84318 14.3701H0.126953L1.53015 10.021L5.87375 8.7563ZM12.6925 3.25024L11.4776 6.53152L11.2198 10.9641L11.1211 12.3535L11.1133 15.9027H8.77415L8.76654 12.3602L8.66757 10.963L8.40966 6.53152L7.19492 3.25024H12.6925Z" fill="#F5841F"/>
</svg>
